<?xml version="1.0" standalone="no"?>
<!DOCTYPE svg PUBLIC "-//W3C//DTD SVG 20010904//EN"
 "http://www.w3.org/TR/2001/REC-SVG-20010904/DTD/svg10.dtd">
<svg version="1.0" xmlns="http://www.w3.org/2000/svg"
 width="96.000000pt" height="83.000000pt" viewBox="0 0 96.000000 83.000000"
 preserveAspectRatio="xMidYMid meet">

<g transform="translate(0.000000,83.000000) scale(0.100000,-0.100000)"
fill="#000000" stroke="none">
<path d="M120 820 c0 -6 138 -10 395 -10 257 0 395 4 395 10 0 6 -138 10 -395
10 -257 0 -395 -4 -395 -10z"/>
<path d="M251 473 c-19 -109 -36 -204 -39 -211 -3 -8 9 -12 41 -12 52 0 47
-10 73 158 9 62 19 111 21 108 2 -2 14 -41 27 -87 22 -83 22 -84 57 -87 33 -3
36 -1 89 87 30 50 56 87 57 83 2 -4 -8 -62 -21 -129 -13 -68 -21 -125 -18
-128 5 -5 82 -7 82 -2 0 2 16 92 35 200 19 108 35 202 35 207 0 7 -20 10 -51
8 l-51 -3 -71 -113 -71 -114 -30 114 -31 113 -50 3 -50 3 -34 -198z"/>
<path d="M0 83 c0 -14 13 -15 128 -10 70 4 247 7 395 7 171 0 267 4 267 10 0
6 -138 10 -395 10 -361 0 -395 -1 -395 -17z"/>
</g>
</svg>
