<?xml version="1.0" standalone="no"?>
<!DOCTYPE svg PUBLIC "-//W3C//DTD SVG 20010904//EN"
 "http://www.w3.org/TR/2001/REC-SVG-20010904/DTD/svg10.dtd">
<svg version="1.0" xmlns="http://www.w3.org/2000/svg"
 width="382.000000pt" height="449.000000pt" viewBox="0 0 382.000000 449.000000"
 preserveAspectRatio="xMidYMid meet">

<g transform="translate(0.000000,449.000000) scale(0.100000,-0.100000)"
fill="#000000" stroke="none">
<path d="M0 3958 l1 -533 28 55 c28 54 29 54 35 25 3 -17 8 -52 11 -80 27
-240 40 -315 55 -315 4 0 10 8 14 18 13 38 55 101 59 89 2 -6 8 0 12 16 8 29
32 36 41 12 7 -18 30 -20 38 -2 5 10 7 10 12 0 3 -7 17 -13 30 -13 15 0 24 -6
24 -15 0 -22 28 -18 35 5 10 30 25 24 25 -10 0 -30 15 -41 23 -17 2 6 2 3 0
-8 -3 -11 -4 -31 -4 -45 1 -29 21 -54 21 -25 0 32 13 7 17 -33 2 -20 8 -41 14
-47 5 -5 9 -29 10 -55 0 -31 3 -39 8 -26 11 30 18 9 26 -81 5 -55 11 -83 21
-87 8 -3 11 -12 8 -21 -4 -9 -2 -35 4 -58 6 -23 14 -64 18 -92 6 -43 8 -46 15
-25 4 15 7 18 8 8 1 -9 4 -23 7 -32 4 -11 1 -16 -10 -16 -10 0 -16 -8 -15 -22
0 -21 1 -21 8 -4 5 14 10 16 15 8 7 -11 25 -208 26 -276 0 -18 4 -26 13 -23 9
3 11 -12 9 -61 -2 -35 0 -67 6 -71 5 -3 12 -17 16 -31 4 -14 4 -20 -1 -13 -5
7 -9 -20 -9 -63 0 -41 3 -74 7 -74 4 0 3 -19 -3 -42 -5 -24 -6 -44 -1 -45 16
-6 -5 -421 -23 -448 -7 -11 -11 -33 -8 -49 3 -19 -1 -35 -12 -47 -16 -18 -16
-19 -1 -19 10 0 17 -5 17 -10 0 -6 -6 -9 -12 -8 -9 2 -14 -18 -16 -67 -2 -38
-8 -74 -14 -80 -7 -7 -8 -1 -4 20 5 22 4 27 -4 19 -6 -6 -11 -27 -12 -47 -1
-20 -5 -37 -10 -37 -4 0 -7 -8 -6 -17 3 -38 -3 -52 -22 -58 -12 -4 -20 -14
-19 -23 3 -33 -1 -42 -21 -42 -11 0 -20 -5 -20 -11 0 -5 4 -7 10 -4 6 3 7 -1
4 -9 -7 -19 -30 -21 -37 -3 -4 9 -6 9 -6 0 -2 -24 -47 -14 -61 12 -7 14 -22
25 -32 25 -10 0 -18 3 -18 8 0 4 -21 29 -45 55 -25 26 -45 52 -45 58 0 6 -5 7
-10 4 -6 -4 -13 7 -16 24 -4 17 -11 29 -16 28 -9 -2 -29 45 -55 126 -3 11 -12
16 -21 12 -11 -4 -13 0 -9 15 3 14 1 20 -6 17 -12 -4 -25 -62 -47 -217 -7 -47
-15 -89 -18 -94 -3 -5 -18 15 -33 45 l-28 54 -1 -532 0 -533 450 0 c248 0 450
2 450 4 0 2 -25 20 -56 40 -31 21 -54 39 -52 41 3 4 269 39 373 50 78 8 115
23 115 46 0 11 7 19 15 19 8 0 15 5 15 10 0 6 -4 10 -10 10 -5 0 -10 9 -10 20
0 16 7 20 30 20 38 0 40 20 3 21 -25 1 -23 3 12 14 31 10 40 17 38 33 -2 17 5
22 37 27 38 6 65 25 38 25 -23 1 33 40 57 40 12 0 40 7 61 16 21 9 52 18 69
19 16 2 57 8 90 14 64 11 245 25 465 36 74 4 137 8 139 11 2 2 -110 4 -250 5
-255 0 -399 4 -625 15 l-121 6 -7 81 c-4 45 -8 96 -9 112 -1 17 -5 35 -8 40
-3 6 -6 41 -8 80 -2 38 -5 73 -8 77 -2 5 1 8 7 8 15 0 10 70 -8 99 -8 13 -9
20 -3 17 6 -4 11 0 11 8 0 9 -4 16 -10 16 -5 0 -10 7 -10 15 0 8 5 15 11 15 6
0 7 5 2 13 -4 6 -8 30 -9 52 -2 22 -5 64 -7 93 -3 28 -1 52 4 52 5 0 9 5 9 11
0 5 -5 7 -10 4 -6 -3 -10 0 -10 9 0 8 6 17 12 19 10 4 10 6 0 6 -7 1 -10 5 -7
11 3 5 0 10 -7 10 -9 0 -9 3 2 10 10 6 11 10 3 10 -7 0 -13 7 -13 16 0 8 4 12
10 9 6 -4 7 2 1 17 -4 13 -9 49 -10 82 -1 32 -7 68 -13 79 -8 16 -7 23 5 32
14 10 14 14 -3 42 -18 30 -23 83 -7 83 4 0 0 16 -8 36 -17 42 -20 94 -5 94 7
0 7 7 0 21 -6 11 -11 30 -10 42 1 12 1 24 0 27 -6 16 -10 53 -14 115 -2 39 -5
75 -6 80 -1 6 -1 15 0 20 6 21 5 50 -2 55 -3 3 -9 37 -12 75 -2 39 -6 70 -7
70 -3 0 -10 126 -12 225 -1 52 -6 99 -12 103 -7 6 -6 10 2 13 8 4 9 13 3 30
-5 13 -10 70 -10 127 0 56 -1 189 -3 295 -1 152 1 194 11 201 8 5 13 11 13 15
-8 57 51 97 177 122 79 16 352 29 822 40 275 7 756 -8 869 -27 35 -5 78 -7 95
-3 l31 7 -30 8 c-89 25 -444 34 -1340 33 -511 0 -923 2 -915 4 8 3 26 9 40 15
14 6 28 10 32 9 4 -1 5 5 2 13 -4 8 -18 15 -32 15 -14 0 -22 3 -18 7 7 7 28
13 141 41 68 17 4 66 -103 80 l-57 8 74 12 c70 12 111 35 111 64 0 5 3 7 8 5
4 -3 13 1 20 9 7 8 9 14 5 14 -4 1 13 12 40 26 26 13 47 28 47 33 0 5 12 13
28 19 15 5 37 18 49 28 13 11 34 27 48 37 14 10 25 22 25 27 0 23 -418 6 -442
-18 -5 -5 -14 -58 -19 -117 -7 -83 -13 -111 -27 -121 -16 -13 -16 -13 3 -15
11 -1 -5 -5 -35 -8 -30 -3 -57 -4 -60 -1 -9 9 -40 8 -40 -1 0 -5 -6 -9 -12 -9
-7 0 -29 -13 -48 -30 -19 -16 -48 -35 -65 -41 -68 -26 -83 -34 -80 -39 2 -3
-12 -4 -31 -2 -31 4 -50 22 -22 22 6 0 3 6 -8 14 -17 13 -17 15 -2 21 9 4 14
13 11 21 -3 8 0 20 6 28 6 7 8 16 5 19 -10 10 21 68 56 106 17 18 29 36 26 38
-10 10 198 208 289 276 90 67 383 224 464 248 22 7 41 15 41 19 0 17 -108 20
-712 20 l-638 0 0 -532z m735 -408 c18 -8 18 -9 -5 -9 -14 0 -32 4 -40 9 -12
8 -12 10 5 9 11 0 29 -4 40 -9z m-475 -270 c0 -5 -5 -10 -11 -10 -5 0 -7 5 -4
10 3 6 8 10 11 10 2 0 4 -4 4 -10z"/>
<path d="M2498 4483 c-39 -6 -35 -18 12 -32 55 -16 289 -134 320 -161 14 -12
63 -48 108 -81 291 -209 483 -433 653 -759 53 -103 48 -94 53 -89 2 2 14 60
26 129 13 69 25 133 29 143 5 13 19 -9 54 -80 l47 -98 8 -380 c8 -345 9 -298
10 518 l2 897 -647 -1 c-357 -1 -660 -4 -675 -6z"/>
<path d="M482 3000 c0 -19 2 -27 5 -17 2 9 2 25 0 35 -3 9 -5 1 -5 -18z"/>
<path d="M1830 2613 c0 -15 107 -115 113 -106 3 4 -2 31 -11 58 -17 49 -18 50
-59 53 -24 2 -43 -1 -43 -5z"/>
<path d="M2055 2533 c-26 -43 -55 -89 -63 -103 l-15 -25 -10 30 c-5 17 -11 36
-13 44 -6 18 -54 -25 -54 -49 0 -29 31 -120 40 -120 6 0 9 6 7 13 -1 7 9 12
27 12 33 1 69 39 61 64 -3 11 8 30 31 52 l36 34 -7 -33 c-6 -32 -6 -33 19 -26
15 3 32 1 40 -5 12 -10 15 -3 21 39 8 58 2 69 -25 52 -34 -21 -24 10 15 48 19
19 35 38 35 42 0 4 -22 8 -48 8 l-49 0 -48 -77z"/>
<path d="M1820 2583 c0 -9 -27 -163 -36 -208 -6 -29 -5 -29 45 20 28 27 51 55
51 62 0 7 5 12 11 11 6 -2 16 5 22 14 10 15 4 25 -33 63 -42 43 -60 54 -60 38z"/>
<path d="M1817 2361 c-26 -28 -47 -58 -47 -68 0 -10 -3 -28 -6 -40 -6 -21 -3
-23 34 -23 30 0 42 5 46 18 9 29 27 154 23 158 -2 3 -25 -18 -50 -45z"/>
<path d="M2090 2380 c-11 -11 -20 -32 -20 -47 0 -16 -3 -45 -7 -66 l-6 -38 39
3 39 3 12 65 c6 36 9 67 7 69 -2 3 -15 -6 -29 -19 -32 -30 -34 -6 -3 27 18 20
19 23 5 23 -9 0 -26 -9 -37 -20z"/>
<path d="M1346 2051 c-9 -49 -16 -92 -16 -95 0 -3 29 -6 64 -6 60 0 64 1 68
25 4 18 1 25 -11 25 -14 1 -14 2 1 10 9 6 19 24 22 40 3 17 9 44 12 60 l6 30
-65 0 -64 0 -17 -89z m81 -47 c-3 -3 -12 -4 -19 -1 -8 3 -5 6 6 6 11 1 17 -2
13 -5z"/>
<path d="M1546 2108 c15 -72 18 -73 52 -19 l31 51 -45 0 -46 0 8 -32z"/>
<path d="M1677 2126 c-3 -7 -9 -34 -12 -60 -7 -42 -5 -46 13 -46 15 0 20 9 25
43 2 23 8 50 12 60 5 13 2 17 -13 17 -11 0 -22 -6 -25 -14z"/>
<path d="M1834 2118 c-13 -42 -12 -88 2 -88 14 0 22 22 26 74 4 35 -17 46 -28
14z"/>
<path d="M1910 2114 c-15 -39 -13 -44 20 -44 23 0 30 5 30 19 0 11 3 26 6 35
5 12 0 16 -20 16 -19 0 -29 -7 -36 -26z"/>
<path d="M2010 2128 c0 -7 -3 -24 -7 -37 -5 -21 -3 -23 12 -17 18 6 18 6 2
-12 -21 -23 -22 -32 -3 -32 17 0 28 27 21 51 -3 9 -1 20 5 24 18 11 11 35 -10
35 -11 0 -20 -6 -20 -12z"/>
<path d="M2167 2121 c-3 -14 -15 -21 -43 -23 -50 -4 -59 -28 -10 -28 25 0 36
-4 36 -15 0 -8 8 -15 19 -15 18 0 31 34 31 81 0 25 -26 24 -33 0z"/>
<path d="M2330 2110 c28 -39 40 -46 40 -21 0 10 3 26 6 35 5 13 -1 16 -31 16
l-36 0 21 -30z"/>
<path d="M2416 2109 c-11 -55 -9 -59 33 -59 32 0 44 6 70 35 17 20 31 40 31
45 0 6 -29 10 -64 10 -63 0 -64 0 -70 -31z"/>
<path d="M1750 2085 c0 -10 10 -15 31 -15 27 0 30 2 19 15 -7 8 -21 15 -31 15
-11 0 -19 -7 -19 -15z"/>
<path d="M2236 2078 c-9 -36 -8 -40 22 -36 21 2 28 9 30 31 3 23 0 27 -21 27
-17 0 -27 -7 -31 -22z"/>
<path d="M2520 2065 c-8 -9 -8 -15 -2 -15 12 0 26 19 19 26 -2 2 -10 -2 -17
-11z"/>
<path d="M2330 2060 c0 -5 7 -10 16 -10 8 0 12 5 9 10 -3 6 -10 10 -16 10 -5
0 -9 -4 -9 -10z"/>
<path d="M1518 2055 c-3 -6 -9 -31 -12 -57 l-7 -48 49 0 c43 0 50 3 56 23 9
33 8 37 -9 37 -8 0 -15 -4 -15 -10 0 -5 -9 -10 -20 -10 -13 0 -22 9 -26 28
-10 47 -10 47 -16 37z"/>
<path d="M1607 2046 c-4 -10 -5 -21 -2 -24 9 -9 17 6 13 25 -3 17 -4 17 -11
-1z"/>
<path d="M2226 2014 c-9 -24 -8 -26 21 -22 37 4 45 38 10 38 -14 0 -28 -7 -31
-16z"/>
<path d="M2320 2000 c-7 -17 -20 -35 -29 -40 -12 -7 -7 -9 22 -10 33 0 37 3
37 24 0 13 3 31 6 40 12 30 -23 16 -36 -14z"/>
<path d="M2410 2026 c0 -2 6 -9 14 -15 10 -9 16 -8 26 4 11 13 8 15 -14 15
-14 0 -26 -2 -26 -4z"/>
<path d="M2465 2010 c-17 -19 -17 -21 0 -40 23 -25 55 -26 55 -2 0 9 3 27 6
40 5 18 2 22 -18 22 -14 0 -33 -9 -43 -20z"/>
<path d="M1795 2009 c-16 -5 -35 -7 -42 -4 -7 2 -15 0 -18 -5 -4 -6 11 -10 34
-10 34 0 41 -3 41 -20 0 -11 7 -20 15 -20 8 0 16 9 17 20 0 11 1 25 2 32 1 16
-13 18 -49 7z"/>
<path d="M1886 1988 c-3 -17 -4 -33 -1 -36 6 -7 44 27 56 50 8 15 5 18 -19 18
-25 0 -30 -5 -36 -32z"/>
<path d="M1986 1998 c-10 -38 -7 -48 14 -48 13 0 20 7 20 19 0 11 3 26 6 35 4
11 0 16 -14 16 -12 0 -22 -9 -26 -22z"/>
<path d="M2070 2005 c0 -11 11 -15 41 -15 36 0 40 -2 34 -20 -8 -24 20 -28 29
-4 17 44 8 54 -49 54 -42 0 -55 -3 -55 -15z"/>
<path d="M1650 1980 c0 -23 5 -30 19 -30 13 0 20 9 23 30 4 26 1 30 -19 30
-19 0 -23 -5 -23 -30z"/>
<path d="M2396 1995 c-11 -30 -6 -40 11 -22 12 12 14 20 6 28 -7 7 -12 6 -17
-6z"/>
<path d="M1915 1960 c-3 -5 1 -10 9 -10 9 0 16 5 16 10 0 6 -4 10 -9 10 -6 0
-13 -4 -16 -10z"/>
<path d="M2415 1960 c-4 -6 5 -10 20 -10 15 0 24 4 20 10 -3 6 -12 10 -20 10
-8 0 -17 -4 -20 -10z"/>
<path d="M1572 1873 c2 -9 9 -18 16 -19 7 -1 8 0 2 3 -16 7 -12 21 8 26 12 3
11 5 -6 6 -17 1 -23 -4 -20 -16z"/>
<path d="M1636 1868 c-10 -40 -7 -50 16 -46 30 4 39 68 9 68 -11 0 -21 -9 -25
-22z m34 2 c0 -5 -4 -10 -10 -10 -5 0 -10 5 -10 10 0 6 5 10 10 10 6 0 10 -4
10 -10z"/>
<path d="M1688 1855 l-4 -34 43 1 c46 1 63 12 44 31 -14 14 -15 30 -1 22 6 -3
10 -2 10 3 0 5 -20 10 -44 10 -43 1 -44 0 -48 -33z m58 8 c19 -25 18 -28 -16
-30 -17 -1 -30 2 -30 7 0 6 8 10 18 11 10 0 12 3 5 6 -7 2 -13 9 -13 14 0 15
22 10 36 -8z"/>
<path d="M1790 1886 c0 -9 30 -14 35 -6 4 6 -3 10 -14 10 -12 0 -21 -2 -21 -4z"/>
<path d="M1866 1858 c-6 -30 -2 -47 9 -36 11 10 17 68 8 68 -6 0 -13 -14 -17
-32z"/>
<path d="M1906 1865 c-21 -31 -21 -55 0 -29 13 16 15 16 10 2 -3 -10 -1 -18 4
-18 6 0 10 9 10 19 0 11 3 26 6 35 10 25 -12 19 -30 -9z"/>
<path d="M1952 1878 c-15 -15 -16 -45 -2 -53 16 -10 41 16 38 38 -4 25 -20 31
-36 15z m25 -32 c-4 -9 -11 -16 -17 -16 -11 0 -14 33 -3 44 11 10 26 -11 20
-28z"/>
<path d="M2009 1853 c4 -35 5 -36 12 -13 11 39 10 50 -4 50 -9 0 -12 -11 -8
-37z"/>
<path d="M2062 1876 c7 -8 15 -11 18 -7 3 3 9 9 14 14 5 4 -3 7 -18 7 -22 0
-25 -2 -14 -14z"/>
<path d="M2112 1878 c-15 -15 -16 -45 -2 -53 16 -10 41 16 38 38 -4 25 -20 31
-36 15z m28 -17 c0 -23 -16 -36 -25 -21 -9 14 1 40 15 40 5 0 10 -9 10 -19z"/>
<path d="M2186 1874 c-13 -34 -7 -54 17 -53 16 1 18 2 5 6 -10 2 -18 9 -18 14
0 5 8 9 18 9 14 0 15 2 2 10 -18 11 -7 25 15 17 8 -4 15 -18 15 -32 0 -34 15
-32 30 6 7 17 16 26 19 21 4 -6 11 -4 19 4 11 12 9 14 -11 14 -15 0 -28 -8
-35 -22 l-11 -23 0 23 c-1 17 -7 22 -30 22 -17 0 -31 -6 -35 -16z"/>
<path d="M2340 1878 c0 -7 -3 -24 -6 -38 -6 -24 -6 -25 9 -5 15 18 16 18 17 3
0 -33 15 -18 15 14 0 23 -5 34 -17 36 -10 2 -18 -2 -18 -10z m30 -8 c0 -5 -4
-10 -10 -10 -5 0 -10 5 -10 10 0 6 5 10 10 10 6 0 10 -4 10 -10z"/>
<path d="M1468 1860 c-7 -24 -3 -38 8 -28 3 4 4 17 2 30 l-3 23 -7 -25z"/>
<path d="M1807 1846 c-4 -10 -5 -21 -2 -24 9 -9 17 6 13 25 -3 17 -4 17 -11
-1z"/>
<path d="M1500 1841 c0 -6 5 -13 10 -16 6 -3 10 1 10 9 0 9 -4 16 -10 16 -5 0
-10 -4 -10 -9z"/>
<path d="M2298 1823 c7 -3 16 -2 19 1 4 3 -2 6 -13 5 -11 0 -14 -3 -6 -6z"/>
<path d="M3806 1410 l-8 -384 -48 -95 -47 -95 -11 49 c-6 28 -18 93 -27 145
-15 88 -21 110 -27 99 -2 -2 -23 -42 -47 -89 -182 -350 -443 -642 -743 -830
-48 -30 -88 -58 -88 -61 0 -4 42 -14 93 -23 50 -10 114 -22 141 -28 l48 -10
-63 -42 -63 -41 449 -3 c246 -1 450 -1 452 1 2 2 2 406 1 898 -3 832 -4 867
-12 509z"/>
</g>
</svg>
